<?xml version="1.0" encoding="iso-8859-1"?>
<!-- Generator: Adobe Illustrator 19.0.0, SVG Export Plug-In . SVG Version: 6.00 Build 0)  -->
<svg version="1.1" id="Layer_1" xmlns="http://www.w3.org/2000/svg" xmlns:xlink="http://www.w3.org/1999/xlink" x="0px" y="0px"
	 viewBox="0 0 512.001 512.001" style="enable-background:new 0 0 512.001 512.001;" xml:space="preserve">
<g>
	<g>
		<g>
			<path d="M172.501,258.826c67.692,0,119.42-60.554,108.896-127.373v-0.002c0-0.001,0-0.002,0-0.004
				c-0.001-0.01-0.002-0.019-0.005-0.029c-0.001-0.007-0.004-0.014-0.005-0.021c-4.628-29.578-20.856-55.543-45.071-72.684
				C233.592,25.885,206.021,0,172.501,0c-33.52,0-61.09,25.885-63.817,58.714c-24.214,17.14-40.443,43.105-45.07,72.683
				c-0.001,0.007-0.004,0.014-0.005,0.021c-0.001,0.01-0.002,0.019-0.004,0.029c0,0.001,0,0.002,0,0.004v0.002
				C53.073,198.315,104.861,258.826,172.501,258.826z M172.501,35.786c15.588,0,28.271,12.681,28.271,28.269
				c0,12.097-7.738,22.766-18.968,26.691c-5.914,1.891-12.434,1.918-18.365,0.081c-11.332-3.846-19.208-14.561-19.208-26.772
				C144.23,48.467,156.912,35.786,172.501,35.786z M246.874,152.101c-1.851,39.55-34.546,70.939-74.373,70.939
				c-39.854,0-72.517-31.415-74.375-70.939H246.874z"/>
			<path d="M254.482,294.912c-50.605-29.283-113.266-29.336-163.962,0c-3.415,1.977-4.074,6.623-1.284,9.413l79.047,79.048
				c2.33,2.33,6.105,2.33,8.435,0l79.048-79.048C258.556,301.535,257.897,296.889,254.482,294.912z"/>
			<path d="M68.645,317.475c-2.275-2.276-5.952-2.344-8.301-0.146c-32.007,29.98-52.04,72.597-52.04,119.808v56.749
				c0,9.882,8.011,17.893,17.893,17.893h128.41c3.293,0,5.964-2.67,5.964-5.964v-93.943c0-1.582-0.629-3.099-1.747-4.217
				L68.645,317.475z"/>
			<path d="M402.304,348.3c38.924,0,70.592-31.668,70.592-70.592c0-38.924-31.668-70.592-70.592-70.592
				c-38.925,0-70.593,31.668-70.593,70.592C331.711,316.633,363.379,348.3,402.304,348.3z"/>
			<path d="M330.011,390.719c-8.389-28.413-24.272-53.643-45.354-73.389c-2.349-2.2-6.026-2.13-8.301,0.146l-90.18,90.18
				c-1.119,1.119-1.746,2.635-1.746,4.217v93.943c0,3.295,2.67,5.964,5.964,5.964c45.133,0,193.918,0.222,295.41,0.222
				c9.882,0,17.893-8.011,17.893-17.893V461.72C503.697,371.25,393.426,326.16,330.011,390.719z"/>
		</g>
	</g>
</g>
<g>
</g>
<g>
</g>
<g>
</g>
<g>
</g>
<g>
</g>
<g>
</g>
<g>
</g>
<g>
</g>
<g>
</g>
<g>
</g>
<g>
</g>
<g>
</g>
<g>
</g>
<g>
</g>
<g>
</g>
</svg>
