<svg width="24px" height="24px" viewBox="0 0 24 24" fill="none" xmlns="http://www.w3.org/2000/svg">
<path fill-rule="evenodd" clip-rule="evenodd" d="M15.5308 3.3303C13.5345 2.8899 11.4655 2.8899 9.46917 3.3303L9.05155 3.42243C6.7436 3.93157 4.83995 5.48141 3.86227 7.56555C3.71538 7.87867 3.95577 8.22161 4.30164 8.22161H20.6984C21.0442 8.22161 21.2846 7.87867 21.1377 7.56555C20.16 5.48141 18.2564 3.93157 15.9484 3.42243L15.5308 3.3303ZM3.37698 15.0688C2.97444 13.4549 2.89428 11.7821 3.13648 10.1447C3.17184 9.90567 3.37999 9.73296 3.62165 9.73296H21.3783C21.62 9.73296 21.8282 9.90567 21.8635 10.1447C22.1057 11.7821 22.0256 13.4549 21.623 15.0688C20.9347 17.8286 18.7366 19.9625 15.9484 20.5776L15.5308 20.6697C13.5345 21.1101 11.4655 21.1101 9.46917 20.6697L9.05155 20.5776C6.26343 19.9625 4.06534 17.8286 3.37698 15.0688ZM7.44085 11.2443C7.02174 11.2443 6.68198 11.5826 6.68198 12C6.68198 12.4173 7.02174 12.7557 7.44085 12.7557H11.4882C11.9073 12.7557 12.2471 12.4173 12.2471 12C12.2471 11.5826 11.9073 11.2443 11.4882 11.2443H7.44085Z" fill="#363853"/>
</svg>
