<?xml version="1.0" encoding="iso-8859-1"?>
<!-- Generator: Adobe Illustrator 19.0.0, SVG Export Plug-In . SVG Version: 6.00 Build 0)  -->
<svg version="1.1" id="Layer_1" xmlns="http://www.w3.org/2000/svg" xmlns:xlink="http://www.w3.org/1999/xlink" x="0px" y="0px"
	 viewBox="0 0 512 512" style="enable-background:new 0 0 512 512;" xml:space="preserve">
<path style="fill:#D5E2E8;" d="M479.284,142.871C478.659,70.353,419.544,11.05,347.027,10.208
	c-25.592-0.297-49.552,6.592-69.993,18.772c-13.004,7.748-29.064,7.748-42.068,0c-20.441-12.18-44.401-19.068-69.993-18.772
	C92.457,11.05,33.341,70.353,32.716,142.871c-0.262,30.373,9.596,58.431,26.405,81.01c20.476,27.507,33.704,59.758,39.412,93.571
	c15.472,91.655,45.741,184.349,80.549,184.349c34.951,0,39.15-93.456,38.413-185.478c-0.21-26.275,11.791-51.129,32.353-67.489
	c0.12-0.096,0.241-0.192,0.361-0.289c3.382-2.71,8.2-2.71,11.582,0c0.12,0.097,0.241,0.193,0.361,0.289
	c20.561,16.361,32.562,41.214,32.353,67.489c-0.735,92.021,3.463,185.478,38.413,185.478c34.808,0,65.077-92.693,80.548-184.349
	c5.707-33.812,18.936-66.063,39.412-93.571C469.688,201.302,479.547,173.245,479.284,142.871z"/>
<path d="M332.919,512c-7.883,0-15.217-3.192-21.208-9.231c-20.361-20.524-28.3-74.564-27.404-186.527
	c0.186-23.121-10.129-44.708-28.306-59.269c-18.18,14.567-28.491,36.151-28.306,59.269c0.894,111.964-7.045,166.004-27.404,186.527
	c-5.991,6.039-13.324,9.231-21.208,9.231c-21.067,0-39.711-21.005-56.995-64.214c-13.272-33.181-25.208-78.864-33.61-128.635
	c-5.535-32.787-18.516-63.625-37.537-89.179c-18.868-25.345-28.695-55.494-28.422-87.188C22.843,105.024,37.81,69.395,64.662,42.46
	C91.516,15.524,127.098,0.447,164.855,0.009c26.594-0.293,52.628,6.679,75.332,20.209c9.755,5.812,21.871,5.812,31.627,0
	C294.519,6.688,320.533-0.301,347.146,0.01c37.757,0.439,73.338,15.514,100.192,42.451c26.852,26.936,41.82,62.565,42.145,100.323
	l0,0c0.273,31.693-9.555,61.843-28.422,87.188c-19.022,25.553-32.002,56.39-37.537,89.178
	c-8.401,49.77-20.337,95.453-33.609,128.635C372.63,490.995,353.986,512,332.919,512z M256,236.28c4.293,0,8.586,1.435,12.168,4.306
	l0.344,0.274c23.233,18.487,36.429,46.024,36.192,75.544c-0.326,40.788-1.193,149.136,21.487,171.998
	c2.813,2.835,5.073,3.199,6.727,3.199c19.783,0,51.212-61.63,70.492-175.848c6.07-35.956,20.346-69.832,41.287-97.962
	c16.188-21.748,24.622-47.624,24.386-74.832l0,0C468.509,76.16,413.699,21.183,346.907,20.408
	c-22.805-0.28-45.177,5.729-64.654,17.335c-16.195,9.649-36.315,9.648-52.51,0c-19.477-11.606-41.839-17.596-64.654-17.335
	C98.299,21.182,43.491,76.159,42.915,142.959c-0.234,27.208,8.199,53.085,24.387,74.833c20.941,28.131,35.218,62.006,41.287,97.963
	c19.282,114.217,50.709,175.846,70.492,175.846c1.654,0,3.913-0.363,6.726-3.199c22.68-22.863,21.814-131.21,21.489-171.998
	c-0.236-29.521,12.959-57.058,36.201-75.552l0.333-0.265C247.414,237.716,251.708,236.28,256,236.28z"/>
<path d="M68.49,151.69c-0.03,0-0.06,0-0.09,0c-5.633-0.048-10.159-4.654-10.111-10.286c0.348-40.462,23.152-76.977,59.512-95.295
	c5.028-2.536,11.163-0.512,13.698,4.52c2.535,5.03,0.511,11.163-4.52,13.698c-29.505,14.864-48.01,44.466-48.292,77.253
	C78.638,147.181,74.081,151.69,68.49,151.69z"/>
<path d="M156.036,55.578c-5.168,0-9.599-3.913-10.134-9.166c-0.571-5.603,3.509-10.609,9.112-11.18
	c3.196-0.325,6.449-0.51,9.667-0.548c5.641-0.052,10.252,4.447,10.318,10.08c0.065,5.632-4.447,10.252-10.08,10.318
	c-2.61,0.031-5.246,0.18-7.836,0.444C156.731,55.561,156.382,55.578,156.036,55.578z"/>
<g>
</g>
<g>
</g>
<g>
</g>
<g>
</g>
<g>
</g>
<g>
</g>
<g>
</g>
<g>
</g>
<g>
</g>
<g>
</g>
<g>
</g>
<g>
</g>
<g>
</g>
<g>
</g>
<g>
</g>
</svg>
