<?xml version="1.0" encoding="iso-8859-1"?>
<!-- Generator: Adobe Illustrator 17.1.0, SVG Export Plug-In . SVG Version: 6.00 Build 0)  -->
<!DOCTYPE svg PUBLIC "-//W3C//DTD SVG 1.1//EN" "http://www.w3.org/Graphics/SVG/1.1/DTD/svg11.dtd">
<svg version="1.1" id="Capa_1" xmlns="http://www.w3.org/2000/svg" xmlns:xlink="http://www.w3.org/1999/xlink" x="0px" y="0px"
	 viewBox="0 0 207.559 207.559" style="enable-background:new 0 0 207.559 207.559;" xml:space="preserve">
<path d="M194.949,21.465l-20-20C174.012,0.526,172.74,0,171.414,0H36.145c-1.326,0-2.598,0.526-3.535,1.465l-20,20
	c-0.938,0.938-1.465,2.209-1.465,3.535v157.559c0,1.326,0.527,2.598,1.465,3.536l20,19.999c0.938,0.938,2.209,1.465,3.535,1.465
	h135.27c1.326,0,2.598-0.526,3.535-1.465l20-19.999c0.938-0.938,1.465-2.21,1.465-3.536V25
	C196.414,23.674,195.888,22.402,194.949,21.465z M37.515,123.57c0.67-13.561,3.915-48.501,19.614-69.142
	c19.789-26.018,35.913-25.652,35.913-13.192v75.208c0,2.996-1.19,5.869-3.309,7.988l-3.025,3.025
	c-1.718,1.717-3.943,2.835-6.346,3.188l-30.025,4.412c-3.143,0.462-6.336-0.422-8.795-2.434
	C38.836,130.408,37.342,127.061,37.515,123.57z M85.023,190.11h-37.51c-2.762,0-5-2.238-5-5s2.238-5,5-5h37.51c2.762,0,5,2.238,5,5
	S87.785,190.11,85.023,190.11z M119.533,170.979h-72.02c-2.762,0-5-2.238-5-5s2.238-5,5-5h72.02c2.762,0,5,2.238,5,5
	S122.295,170.979,119.533,170.979z M166.017,132.622c-2.459,2.012-5.652,2.895-8.795,2.434l-30.025-4.412
	c-2.403-0.353-4.628-1.471-6.346-3.188l-3.025-3.025c-2.118-2.118-3.309-4.992-3.309-7.988V41.235
	c0-12.459,16.124-12.826,35.913,13.192c15.699,20.641,18.943,55.581,19.614,69.142C170.216,127.061,168.722,130.408,166.017,132.622
	z"/>
<g>
</g>
<g>
</g>
<g>
</g>
<g>
</g>
<g>
</g>
<g>
</g>
<g>
</g>
<g>
</g>
<g>
</g>
<g>
</g>
<g>
</g>
<g>
</g>
<g>
</g>
<g>
</g>
<g>
</g>
</svg>
